<?xml version="1.0" standalone="no"?>
<!DOCTYPE svg PUBLIC "-//W3C//DTD SVG 20010904//EN"
 "http://www.w3.org/TR/2001/REC-SVG-20010904/DTD/svg10.dtd">
<svg version="1.0" xmlns="http://www.w3.org/2000/svg"
 width="200.000000pt" height="200.000000pt" viewBox="0 0 200.000000 200.000000"
 preserveAspectRatio="xMidYMid meet">

<g transform="translate(0.000000,200.000000) scale(0.100000,-0.100000)"
fill="#000000" stroke="none">
<path d="M1113 1918 l-162 -80 -31 26 c-49 41 -92 35 -218 -28 -129 -65 -146
-81 -148 -144 l-1 -47 -173 -85 c-94 -47 -180 -96 -191 -109 -27 -33 -24 -86
10 -157 32 -69 70 -104 113 -104 15 0 64 18 108 40 l79 40 3 -473 3 -472 25
-45 c14 -24 45 -58 68 -75 l44 -30 371 -3 c251 -2 384 0 410 8 49 14 106 65
128 115 17 37 19 78 19 543 l0 502 -55 0 -55 0 0 -499 c0 -487 0 -499 -20
-524 -12 -15 -38 -31 -58 -37 -50 -13 -645 -13 -695 1 -26 7 -44 21 -57 42
-19 31 -20 54 -20 514 0 375 3 484 12 490 7 4 195 97 418 206 223 109 413 207
423 219 9 11 17 34 17 52 0 41 -62 171 -89 185 -11 6 -41 11 -68 10 -39 0 -78
-15 -210 -81z m239 -63 c12 -24 20 -46 17 -48 -12 -12 -1033 -507 -1044 -507
-16 0 -51 78 -39 90 11 10 1025 510 1037 510 4 0 17 -20 29 -45z"/>
<path d="M732 1168 c-17 -17 -17 -699 0 -716 15 -15 61 -15 76 0 17 17 17 699
0 716 -15 15 -61 15 -76 0z"/>
<path d="M999 1163 c-11 -13 -15 -83 -17 -342 -2 -357 0 -373 51 -379 58 -7
57 -11 57 364 0 298 -2 345 -16 358 -20 21 -58 20 -75 -1z"/>
<path d="M1267 1162 c-15 -17 -17 -56 -17 -351 0 -210 4 -339 10 -352 13 -23
62 -26 84 -3 14 13 16 59 16 347 0 285 -2 336 -16 355 -18 27 -55 29 -77 4z"/>
</g>
</svg>
